<svg width="7719" height="3231" viewBox="0 0 7719 3231" fill="none" xmlns="http://www.w3.org/2000/svg">
<path d="M4679.47 514.743C4843.97 515.129 5001.52 556.624 5152.12 639.228C5299.29 721.824 5422.39 843.776 5521.39 1005.08C5620.41 1162.96 5676.51 1353.3 5689.7 1576.1L6106.09 1577.07L6105.44 1854.67L5689.05 1853.69C5660.9 2165.5 5560.92 2418.87 5389.1 2613.81C5213.86 2808.75 4992.58 2907.62 4725.26 2910.42L4726.43 2411.77C4870.4 2398.4 4995.61 2345.57 5102.07 2253.29C5208.54 2157.58 5275.68 2024.08 5303.5 1852.79L4018.33 1849.77C3959.53 2079.25 3899.12 2264.18 3837.1 2404.54C3775.09 2544.91 3678.85 2664.64 3548.38 2763.72C3417.92 2862.8 3243.02 2912.08 3023.68 2911.57C2746.09 2910.92 2516.7 2814.42 2335.51 2622.07C2154.33 2426.3 2053.84 2167.32 2034.03 1845.12L1607.35 1844.12L1608.01 1566.52L2034.68 1567.53C2059.35 1276.28 2154.15 1041.74 2319.07 863.916C2480.56 686.084 2691.57 583.765 2952.1 556.959L2950.93 1055.6C2830.94 1072.46 2722.86 1125.33 2626.69 1214.21C2527.09 1303.08 2461.7 1421.16 2430.51 1568.45L3684.84 1571.39C3743.63 1345.34 3804.03 1162.13 3866.05 1021.76C3924.65 877.963 4019.18 758.235 4149.63 662.581C4280.09 563.5 4456.71 514.221 4679.47 514.743ZM2999.1 2433.42C3167.03 2433.82 3295.66 2384.43 3385 2285.25C3474.34 2186.07 3548.36 2040.59 3607.08 1848.81L2419.58 1846.03C2436.3 2024.28 2494.23 2166.64 2593.36 2273.11C2689.07 2379.58 2824.32 2433.01 2999.1 2433.42ZM5309.29 1575.2C5289.16 1390.09 5222.67 1246 5109.81 1142.92C4996.97 1036.41 4861.72 982.974 4704.08 982.604C4536.15 982.21 4407.51 1033.32 4318.16 1135.92C4225.39 1238.52 4151.37 1384 4096.09 1572.36L5309.29 1575.2Z" fill="white" fill-opacity="0.08"/>
<path d="M296.805 1853.35C296.805 1786.35 310.53 1727.01 337.978 1675.34C366.234 1623.68 404.177 1583.71 451.808 1555.46C500.246 1526.4 553.932 1511.86 612.865 1511.86C656.459 1511.86 699.247 1521.55 741.226 1540.93C784.014 1559.5 817.92 1584.52 842.947 1616.01V1293.89H982.207V2190H842.947V2089.49C820.342 2121.78 788.857 2148.42 748.492 2169.41C708.934 2190.4 663.322 2200.9 611.654 2200.9C553.528 2200.9 500.246 2186.37 451.808 2157.3C404.177 2127.43 366.234 2086.26 337.978 2033.79C310.53 1980.5 296.805 1920.36 296.805 1853.35ZM842.947 1855.78C842.947 1809.76 833.259 1769.8 813.884 1735.89C795.316 1701.98 770.693 1676.15 740.015 1658.39C709.338 1640.63 676.238 1631.75 640.717 1631.75C605.196 1631.75 572.096 1640.63 541.419 1658.39C510.741 1675.34 485.715 1700.77 466.339 1734.68C447.771 1767.78 438.487 1807.34 438.487 1853.35C438.487 1899.37 447.771 1939.74 466.339 1974.45C485.715 2009.16 510.741 2035.8 541.419 2054.37C572.903 2072.13 606.003 2081.01 640.717 2081.01C676.238 2081.01 709.338 2072.13 740.015 2054.37C770.693 2036.61 795.316 2010.78 813.884 1976.87C833.259 1942.16 842.947 1901.79 842.947 1855.78ZM1775.06 1840.03C1775.06 1865.06 1773.45 1887.66 1770.22 1907.85H1260.41C1264.44 1961.13 1284.22 2003.92 1319.74 2036.21C1355.26 2068.5 1398.86 2084.65 1450.53 2084.65C1524.8 2084.65 1577.27 2053.57 1607.95 1991.4H1756.9C1736.71 2052.76 1699.98 2103.21 1646.7 2142.77C1594.23 2181.52 1528.83 2200.9 1450.53 2200.9C1386.75 2200.9 1329.43 2186.77 1278.57 2158.52C1228.52 2129.45 1188.96 2089.09 1159.9 2037.42C1131.64 1984.94 1117.51 1924.4 1117.51 1855.78C1117.51 1787.16 1131.24 1727.01 1158.68 1675.34C1186.94 1622.87 1226.09 1582.5 1276.15 1554.25C1327.01 1525.99 1385.13 1511.86 1450.53 1511.86C1513.49 1511.86 1569.6 1525.59 1618.85 1553.04C1668.09 1580.49 1706.44 1619.24 1733.89 1669.29C1761.34 1718.53 1775.06 1775.45 1775.06 1840.03ZM1630.96 1796.44C1630.15 1745.58 1611.99 1704.81 1576.46 1674.13C1540.94 1643.45 1496.95 1628.12 1444.47 1628.12C1396.84 1628.12 1356.07 1643.45 1322.16 1674.13C1288.26 1704 1268.07 1744.77 1261.62 1796.44H1630.96ZM2168.85 2066.48L2357.76 1522.76H2504.28L2249.98 2190H2085.29L1832.2 1522.76H1979.94L2168.85 2066.48ZM3202.93 1635.38H3079.41V2190H2940.15V1635.38H2861.44V1522.76H2940.15V1475.54C2940.15 1398.84 2960.34 1343.14 3000.7 1308.42C3041.87 1272.9 3106.05 1255.14 3193.24 1255.14V1370.18C3151.26 1370.18 3121.8 1378.26 3104.84 1394.4C3087.89 1409.74 3079.41 1436.79 3079.41 1475.54V1522.76H3202.93V1635.38ZM3395.51 1434.36C3370.48 1434.36 3349.49 1425.89 3332.54 1408.93C3315.59 1391.98 3307.11 1370.99 3307.11 1345.96C3307.11 1320.94 3315.59 1299.95 3332.54 1282.99C3349.49 1266.04 3370.48 1257.56 3395.51 1257.56C3419.73 1257.56 3440.32 1266.04 3457.27 1282.99C3474.22 1299.95 3482.7 1320.94 3482.7 1345.96C3482.7 1370.99 3474.22 1391.98 3457.27 1408.93C3440.32 1425.89 3419.73 1434.36 3395.51 1434.36ZM3463.32 1522.76V2190H3325.27V1522.76H3463.32ZM3981.22 1511.86C4033.69 1511.86 4080.51 1522.76 4121.69 1544.56C4163.67 1566.36 4196.36 1598.65 4219.77 1641.44C4243.19 1684.22 4254.89 1735.89 4254.89 1796.44V2190H4118.05V1817.03C4118.05 1757.28 4103.12 1711.67 4073.25 1680.19C4043.38 1647.9 4002.61 1631.75 3950.94 1631.75C3899.27 1631.75 3858.1 1647.9 3827.42 1680.19C3797.55 1711.67 3782.62 1757.28 3782.62 1817.03V2190H3644.57V1522.76H3782.62V1599.05C3805.22 1571.6 3833.88 1550.21 3868.6 1534.87C3904.12 1519.53 3941.66 1511.86 3981.22 1511.86ZM4384.97 1853.35C4384.97 1786.35 4398.69 1727.01 4426.14 1675.34C4454.39 1623.68 4492.34 1583.71 4539.97 1555.46C4588.41 1526.4 4641.69 1511.86 4699.81 1511.86C4752.29 1511.86 4797.9 1522.36 4836.65 1543.35C4876.21 1563.53 4907.7 1588.96 4931.11 1619.64V1522.76H5070.37V2190H4931.11V2090.7C4907.7 2122.19 4875.81 2148.42 4835.44 2169.41C4795.08 2190.4 4749.06 2200.9 4697.39 2200.9C4640.07 2200.9 4587.6 2186.37 4539.97 2157.3C4492.34 2127.43 4454.39 2086.26 4426.14 2033.79C4398.69 1980.5 4384.97 1920.36 4384.97 1853.35ZM4931.11 1855.78C4931.11 1809.76 4921.42 1769.8 4902.04 1735.89C4883.48 1701.98 4858.85 1676.15 4828.18 1658.39C4797.5 1640.63 4764.4 1631.75 4728.88 1631.75C4693.36 1631.75 4660.26 1640.63 4629.58 1658.39C4598.9 1675.34 4573.87 1700.77 4554.5 1734.68C4535.93 1767.78 4526.65 1807.34 4526.65 1853.35C4526.65 1899.37 4535.93 1939.74 4554.5 1974.45C4573.87 2009.16 4598.9 2035.8 4629.58 2054.37C4661.06 2072.13 4694.16 2081.01 4728.88 2081.01C4764.4 2081.01 4797.5 2072.13 4828.18 2054.37C4858.85 2036.61 4883.48 2010.78 4902.04 1976.87C4921.42 1942.16 4931.11 1901.79 4931.11 1855.78ZM5588.33 1511.86C5640.81 1511.86 5687.63 1522.76 5728.81 1544.56C5770.79 1566.36 5803.48 1598.65 5826.89 1641.44C5850.31 1684.22 5862.01 1735.89 5862.01 1796.44V2190H5725.17V1817.03C5725.17 1757.28 5710.24 1711.67 5680.37 1680.19C5650.5 1647.9 5609.73 1631.75 5558.06 1631.75C5506.39 1631.75 5465.22 1647.9 5434.54 1680.19C5404.67 1711.67 5389.74 1757.28 5389.74 1817.03V2190H5251.69V1522.76H5389.74V1599.05C5412.34 1571.6 5441 1550.21 5475.72 1534.87C5511.24 1519.53 5548.78 1511.86 5588.33 1511.86ZM5992.08 1855.78C5992.08 1787.16 6005.81 1727.01 6033.26 1675.34C6061.51 1622.87 6100.26 1582.5 6149.51 1554.25C6198.75 1525.99 6255.27 1511.86 6319.04 1511.86C6399.77 1511.86 6466.38 1531.24 6518.85 1569.99C6572.13 1607.93 6608.06 1662.43 6626.63 1733.47H6477.68C6465.57 1700.37 6446.19 1674.54 6419.55 1655.97C6392.91 1637.4 6359.41 1628.12 6319.04 1628.12C6262.53 1628.12 6217.32 1648.3 6183.42 1688.66C6150.32 1728.22 6133.77 1783.93 6133.77 1855.78C6133.77 1927.63 6150.32 1983.73 6183.42 2024.1C6217.32 2064.46 6262.53 2084.65 6319.04 2084.65C6398.97 2084.65 6451.84 2049.53 6477.68 1979.29H6626.63C6607.25 2047.11 6570.92 2101.2 6517.64 2141.56C6464.36 2181.12 6398.16 2200.9 6319.04 2200.9C6255.27 2200.9 6198.75 2186.77 6149.51 2158.52C6100.26 2129.45 6061.51 2089.09 6033.26 2037.42C6005.81 1984.94 5992.08 1924.4 5992.08 1855.78ZM7364.84 1522.76L6955.53 2503.64H6812.64L6948.27 2179.1L6685.49 1522.76H6839.28L7026.98 2031.36L7221.94 1522.76H7364.84Z" fill="white"/>
<path d="M2704.2 2221.4V2244.6H2581V2349H2685V2372.2H2581V2501H2553V2221.4H2704.2ZM2947.87 2380.6C2947.87 2390.2 2947.6 2397.53 2947.07 2402.6H2765.87C2766.67 2419.13 2770.67 2433.27 2777.87 2445C2785.07 2456.73 2794.53 2465.67 2806.27 2471.8C2818 2477.67 2830.8 2480.6 2844.67 2480.6C2862.8 2480.6 2878 2476.2 2890.27 2467.4C2902.8 2458.6 2911.07 2446.73 2915.07 2431.8H2944.67C2939.33 2453.13 2927.87 2470.6 2910.27 2484.2C2892.93 2497.53 2871.07 2504.2 2844.67 2504.2C2824.13 2504.2 2805.73 2499.67 2789.47 2490.6C2773.2 2481.27 2760.4 2468.2 2751.07 2451.4C2742 2434.33 2737.47 2414.47 2737.47 2391.8C2737.47 2369.13 2742 2349.27 2751.07 2332.2C2760.13 2315.13 2772.8 2302.07 2789.07 2293C2805.33 2283.93 2823.87 2279.4 2844.67 2279.4C2865.47 2279.4 2883.6 2283.93 2899.07 2293C2914.8 2302.07 2926.8 2314.33 2935.07 2329.8C2943.6 2345 2947.87 2361.93 2947.87 2380.6ZM2919.47 2379.8C2919.73 2363.53 2916.4 2349.67 2909.47 2338.2C2902.8 2326.73 2893.6 2318.07 2881.87 2312.2C2870.13 2306.33 2857.33 2303.4 2843.47 2303.4C2822.67 2303.4 2804.93 2310.07 2790.27 2323.4C2775.6 2336.73 2767.47 2355.53 2765.87 2379.8H2919.47ZM3013.09 2241.4C3007.49 2241.4 3002.69 2239.4 2998.69 2235.4C2994.69 2231.4 2992.69 2226.47 2992.69 2220.6C2992.69 2214.73 2994.69 2209.93 2998.69 2206.2C3002.69 2202.2 3007.49 2200.2 3013.09 2200.2C3018.69 2200.2 3023.49 2202.2 3027.49 2206.2C3031.49 2209.93 3033.49 2214.73 3033.49 2220.6C3033.49 2226.47 3031.49 2231.4 3027.49 2235.4C3023.49 2239.4 3018.69 2241.4 3013.09 2241.4ZM3027.09 2282.6V2501H2999.09V2282.6H3027.09ZM3126.9 2306.2V2441.8C3126.9 2455.13 3129.43 2464.33 3134.5 2469.4C3139.57 2474.47 3148.5 2477 3161.3 2477H3186.9V2501H3156.9C3137.17 2501 3122.5 2496.47 3112.9 2487.4C3103.3 2478.07 3098.5 2462.87 3098.5 2441.8V2306.2H3068.1V2282.6H3098.5V2227.8H3126.9V2282.6H3186.9V2306.2H3126.9ZM3328.68 2504.2C3308.14 2504.2 3289.61 2499.67 3273.08 2490.6C3256.81 2481.27 3243.88 2468.2 3234.28 2451.4C3224.94 2434.33 3220.28 2414.47 3220.28 2391.8C3220.28 2369.13 3225.08 2349.4 3234.68 2332.6C3244.28 2315.53 3257.34 2302.47 3273.88 2293.4C3290.41 2284.07 3308.94 2279.4 3329.48 2279.4C3350.01 2279.4 3368.54 2284.07 3385.08 2293.4C3401.88 2302.47 3414.94 2315.53 3424.28 2332.6C3433.88 2349.4 3438.68 2369.13 3438.68 2391.8C3438.68 2414.2 3433.88 2433.93 3424.28 2451C3414.68 2468.07 3401.48 2481.27 3384.68 2490.6C3367.88 2499.67 3349.21 2504.2 3328.68 2504.2ZM3328.68 2479.8C3343.08 2479.8 3356.41 2476.6 3368.68 2470.2C3380.94 2463.53 3390.81 2453.67 3398.28 2440.6C3406.01 2427.27 3409.88 2411 3409.88 2391.8C3409.88 2372.6 3406.14 2356.47 3398.68 2343.4C3391.21 2330.07 3381.34 2320.2 3369.08 2313.8C3356.81 2307.13 3343.48 2303.8 3329.08 2303.8C3314.68 2303.8 3301.34 2307.13 3289.08 2313.8C3276.81 2320.2 3266.94 2330.07 3259.48 2343.4C3252.28 2356.47 3248.68 2372.6 3248.68 2391.8C3248.68 2411 3252.28 2427.27 3259.48 2440.6C3266.94 2453.67 3276.68 2463.53 3288.68 2470.2C3300.94 2476.6 3314.28 2479.8 3328.68 2479.8ZM3586.68 2391.4C3586.68 2369 3591.22 2349.4 3600.28 2332.6C3609.35 2315.53 3621.75 2302.47 3637.48 2293.4C3653.48 2284.07 3671.48 2279.4 3691.48 2279.4C3710.68 2279.4 3728.02 2284.07 3743.48 2293.4C3758.95 2302.73 3770.28 2314.87 3777.48 2329.8V2205H3805.48V2501H3777.48V2452.2C3770.82 2467.4 3759.88 2479.93 3744.68 2489.8C3729.48 2499.4 3711.62 2504.2 3691.08 2504.2C3671.08 2504.2 3653.08 2499.53 3637.08 2490.2C3621.35 2480.87 3608.95 2467.67 3599.88 2450.6C3591.08 2433.53 3586.68 2413.8 3586.68 2391.4ZM3777.48 2391.8C3777.48 2374.2 3773.88 2358.73 3766.68 2345.4C3759.48 2332.07 3749.62 2321.8 3737.08 2314.6C3724.82 2307.4 3711.22 2303.8 3696.28 2303.8C3680.82 2303.8 3666.95 2307.27 3654.68 2314.2C3642.42 2321.13 3632.68 2331.27 3625.48 2344.6C3618.55 2357.67 3615.08 2373.27 3615.08 2391.4C3615.08 2409.27 3618.55 2425 3625.48 2438.6C3632.68 2451.93 3642.42 2462.2 3654.68 2469.4C3666.95 2476.33 3680.82 2479.8 3696.28 2479.8C3711.22 2479.8 3724.82 2476.2 3737.08 2469C3749.62 2461.8 3759.48 2451.53 3766.68 2438.2C3773.88 2424.87 3777.48 2409.4 3777.48 2391.8ZM4067.01 2380.6C4067.01 2390.2 4066.74 2397.53 4066.21 2402.6H3885.01C3885.81 2419.13 3889.81 2433.27 3897.01 2445C3904.21 2456.73 3913.67 2465.67 3925.41 2471.8C3937.14 2477.67 3949.94 2480.6 3963.81 2480.6C3981.94 2480.6 3997.14 2476.2 4009.41 2467.4C4021.94 2458.6 4030.21 2446.73 4034.21 2431.8H4063.81C4058.47 2453.13 4047.01 2470.6 4029.41 2484.2C4012.07 2497.53 3990.21 2504.2 3963.81 2504.2C3943.27 2504.2 3924.87 2499.67 3908.61 2490.6C3892.34 2481.27 3879.54 2468.2 3870.21 2451.4C3861.14 2434.33 3856.61 2414.47 3856.61 2391.8C3856.61 2369.13 3861.14 2349.27 3870.21 2332.2C3879.27 2315.13 3891.94 2302.07 3908.21 2293C3924.47 2283.93 3943.01 2279.4 3963.81 2279.4C3984.61 2279.4 4002.74 2283.93 4018.21 2293C4033.94 2302.07 4045.94 2314.33 4054.21 2329.8C4062.74 2345 4067.01 2361.93 4067.01 2380.6ZM4038.61 2379.8C4038.87 2363.53 4035.54 2349.67 4028.61 2338.2C4021.94 2326.73 4012.74 2318.07 4001.01 2312.2C3989.27 2306.33 3976.47 2303.4 3962.61 2303.4C3941.81 2303.4 3924.07 2310.07 3909.41 2323.4C3894.74 2336.73 3886.61 2355.53 3885.01 2379.8H4038.61ZM4310.8 2221.4C4341.73 2221.4 4368.27 2227 4390.4 2238.2C4412.53 2249.4 4429.47 2265.53 4441.2 2286.6C4452.93 2307.67 4458.8 2332.73 4458.8 2361.8C4458.8 2390.6 4452.93 2415.53 4441.2 2436.6C4429.47 2457.4 4412.53 2473.4 4390.4 2484.6C4368.27 2495.53 4341.73 2501 4310.8 2501H4228V2221.4H4310.8ZM4310.8 2477.8C4349.73 2477.8 4379.33 2467.67 4399.6 2447.4C4420.13 2426.87 4430.4 2398.33 4430.4 2361.8C4430.4 2325 4420.13 2296.33 4399.6 2275.8C4379.33 2255 4349.73 2244.6 4310.8 2244.6H4256V2477.8H4310.8ZM4708.02 2380.6C4708.02 2390.2 4707.76 2397.53 4707.22 2402.6H4526.02C4526.82 2419.13 4530.82 2433.27 4538.02 2445C4545.22 2456.73 4554.69 2465.67 4566.42 2471.8C4578.16 2477.67 4590.96 2480.6 4604.82 2480.6C4622.96 2480.6 4638.16 2476.2 4650.42 2467.4C4662.96 2458.6 4671.22 2446.73 4675.22 2431.8H4704.82C4699.49 2453.13 4688.02 2470.6 4670.42 2484.2C4653.09 2497.53 4631.22 2504.2 4604.82 2504.2C4584.29 2504.2 4565.89 2499.67 4549.62 2490.6C4533.36 2481.27 4520.56 2468.2 4511.22 2451.4C4502.16 2434.33 4497.62 2414.47 4497.62 2391.8C4497.62 2369.13 4502.16 2349.27 4511.22 2332.2C4520.29 2315.13 4532.96 2302.07 4549.22 2293C4565.49 2283.93 4584.02 2279.4 4604.82 2279.4C4625.62 2279.4 4643.76 2283.93 4659.22 2293C4674.96 2302.07 4686.96 2314.33 4695.22 2329.8C4703.76 2345 4708.02 2361.93 4708.02 2380.6ZM4679.62 2379.8C4679.89 2363.53 4676.56 2349.67 4669.62 2338.2C4662.96 2326.73 4653.76 2318.07 4642.02 2312.2C4630.29 2306.33 4617.49 2303.4 4603.62 2303.4C4582.82 2303.4 4565.09 2310.07 4550.42 2323.4C4535.76 2336.73 4527.62 2355.53 4526.02 2379.8H4679.62ZM4836.85 2473.8L4910.45 2282.6H4940.05L4852.45 2501H4820.85L4733.25 2282.6H4763.25L4836.85 2473.8ZM5115.37 2330.6C5122.3 2315.93 5133.23 2303.8 5148.17 2294.2C5163.37 2284.33 5181.37 2279.4 5202.17 2279.4C5221.9 2279.4 5239.63 2284.07 5255.37 2293.4C5271.37 2302.47 5283.77 2315.53 5292.57 2332.6C5301.63 2349.4 5306.17 2369 5306.17 2391.4C5306.17 2413.8 5301.63 2433.53 5292.57 2450.6C5283.77 2467.67 5271.37 2480.87 5255.37 2490.2C5239.63 2499.53 5221.9 2504.2 5202.17 2504.2C5181.63 2504.2 5163.77 2499.4 5148.57 2489.8C5133.37 2479.93 5122.3 2467.67 5115.37 2453V2604.2H5087.77V2282.6H5115.37V2330.6ZM5277.77 2391.4C5277.77 2373.27 5274.17 2357.67 5266.97 2344.6C5260.03 2331.27 5250.43 2321.13 5238.17 2314.2C5225.9 2307.27 5212.03 2303.8 5196.57 2303.8C5181.63 2303.8 5167.9 2307.4 5155.37 2314.6C5143.1 2321.8 5133.37 2332.07 5126.17 2345.4C5118.97 2358.73 5115.37 2374.2 5115.37 2391.8C5115.37 2409.4 5118.97 2424.87 5126.17 2438.2C5133.37 2451.53 5143.1 2461.8 5155.37 2469C5167.9 2476.2 5181.63 2479.8 5196.57 2479.8C5212.03 2479.8 5225.9 2476.33 5238.17 2469.4C5250.43 2462.2 5260.03 2451.93 5266.97 2438.6C5274.17 2425 5277.77 2409.27 5277.77 2391.4ZM5344.89 2391.4C5344.89 2369 5349.29 2349.4 5358.09 2332.6C5367.15 2315.53 5379.55 2302.47 5395.29 2293.4C5411.29 2284.07 5429.29 2279.4 5449.29 2279.4C5470.09 2279.4 5487.95 2284.2 5502.89 2293.8C5518.09 2303.4 5529.02 2315.67 5535.69 2330.6V2282.6H5563.69V2501H5535.69V2452.6C5528.75 2467.53 5517.69 2479.93 5502.49 2489.8C5487.55 2499.4 5469.69 2504.2 5448.89 2504.2C5429.15 2504.2 5411.29 2499.53 5395.29 2490.2C5379.55 2480.87 5367.15 2467.67 5358.09 2450.6C5349.29 2433.53 5344.89 2413.8 5344.89 2391.4ZM5535.69 2391.8C5535.69 2374.2 5532.09 2358.73 5524.89 2345.4C5517.69 2332.07 5507.82 2321.8 5495.29 2314.6C5483.02 2307.4 5469.42 2303.8 5454.49 2303.8C5439.02 2303.8 5425.15 2307.27 5412.89 2314.2C5400.62 2321.13 5390.89 2331.27 5383.69 2344.6C5376.75 2357.67 5373.29 2373.27 5373.29 2391.4C5373.29 2409.27 5376.75 2425 5383.69 2438.6C5390.89 2451.93 5400.62 2462.2 5412.89 2469.4C5425.15 2476.33 5439.02 2479.8 5454.49 2479.8C5469.42 2479.8 5483.02 2476.2 5495.29 2469C5507.82 2461.8 5517.69 2451.53 5524.89 2438.2C5532.09 2424.87 5535.69 2409.4 5535.69 2391.8ZM5655.61 2321.4C5661.74 2307.8 5671.08 2297.27 5683.61 2289.8C5696.41 2282.33 5712.01 2278.6 5730.41 2278.6V2307.8H5722.81C5702.54 2307.8 5686.28 2313.27 5674.01 2324.2C5661.74 2335.13 5655.61 2353.4 5655.61 2379V2501H5627.61V2282.6H5655.61V2321.4ZM5759.73 2391.4C5759.73 2369 5764.13 2349.4 5772.93 2332.6C5782 2315.53 5794.4 2302.47 5810.13 2293.4C5826.13 2284.07 5844.13 2279.4 5864.13 2279.4C5884.93 2279.4 5902.8 2284.2 5917.73 2293.8C5932.93 2303.4 5943.86 2315.67 5950.53 2330.6V2282.6H5978.53V2501H5950.53V2452.6C5943.6 2467.53 5932.53 2479.93 5917.33 2489.8C5902.4 2499.4 5884.53 2504.2 5863.73 2504.2C5844 2504.2 5826.13 2499.53 5810.13 2490.2C5794.4 2480.87 5782 2467.67 5772.93 2450.6C5764.13 2433.53 5759.73 2413.8 5759.73 2391.4ZM5950.53 2391.8C5950.53 2374.2 5946.93 2358.73 5939.73 2345.4C5932.53 2332.07 5922.66 2321.8 5910.13 2314.6C5897.86 2307.4 5884.26 2303.8 5869.33 2303.8C5853.86 2303.8 5840 2307.27 5827.73 2314.2C5815.46 2321.13 5805.73 2331.27 5798.53 2344.6C5791.6 2357.67 5788.13 2373.27 5788.13 2391.4C5788.13 2409.27 5791.6 2425 5798.53 2438.6C5805.73 2451.93 5815.46 2462.2 5827.73 2469.4C5840 2476.33 5853.86 2479.8 5869.33 2479.8C5884.26 2479.8 5897.86 2476.2 5910.13 2469C5922.66 2461.8 5932.53 2451.53 5939.73 2438.2C5946.93 2424.87 5950.53 2409.4 5950.53 2391.8ZM6235.02 2221.4C6265.95 2221.4 6292.49 2227 6314.62 2238.2C6336.75 2249.4 6353.69 2265.53 6365.42 2286.6C6377.15 2307.67 6383.02 2332.73 6383.02 2361.8C6383.02 2390.6 6377.15 2415.53 6365.42 2436.6C6353.69 2457.4 6336.75 2473.4 6314.62 2484.6C6292.49 2495.53 6265.95 2501 6235.02 2501H6152.22V2221.4H6235.02ZM6235.02 2477.8C6273.95 2477.8 6303.55 2467.67 6323.82 2447.4C6344.35 2426.87 6354.62 2398.33 6354.62 2361.8C6354.62 2325 6344.35 2296.33 6323.82 2275.8C6303.55 2255 6273.95 2244.6 6235.02 2244.6H6180.22V2477.8H6235.02ZM6632.24 2380.6C6632.24 2390.2 6631.97 2397.53 6631.44 2402.6H6450.24C6451.04 2419.13 6455.04 2433.27 6462.24 2445C6469.44 2456.73 6478.91 2465.67 6490.64 2471.8C6502.37 2477.67 6515.17 2480.6 6529.04 2480.6C6547.17 2480.6 6562.37 2476.2 6574.64 2467.4C6587.17 2458.6 6595.44 2446.73 6599.44 2431.8H6629.04C6623.71 2453.13 6612.24 2470.6 6594.64 2484.2C6577.31 2497.53 6555.44 2504.2 6529.04 2504.2C6508.51 2504.2 6490.11 2499.67 6473.84 2490.6C6457.57 2481.27 6444.77 2468.2 6435.44 2451.4C6426.37 2434.33 6421.84 2414.47 6421.84 2391.8C6421.84 2369.13 6426.37 2349.27 6435.44 2332.2C6444.51 2315.13 6457.17 2302.07 6473.44 2293C6489.71 2283.93 6508.24 2279.4 6529.04 2279.4C6549.84 2279.4 6567.97 2283.93 6583.44 2293C6599.17 2302.07 6611.17 2314.33 6619.44 2329.8C6627.97 2345 6632.24 2361.93 6632.24 2380.6ZM6603.84 2379.8C6604.11 2363.53 6600.77 2349.67 6593.84 2338.2C6587.17 2326.73 6577.97 2318.07 6566.24 2312.2C6554.51 2306.33 6541.71 2303.4 6527.84 2303.4C6507.04 2303.4 6489.31 2310.07 6474.64 2323.4C6459.97 2336.73 6451.84 2355.53 6450.24 2379.8H6603.84ZM6761.07 2473.8L6834.67 2282.6H6864.27L6776.67 2501H6745.07L6657.47 2282.6H6687.47L6761.07 2473.8Z" fill="white"/>
</svg>
