<svg width="7719" height="3231" viewBox="0 0 7719 3231" fill="none" xmlns="http://www.w3.org/2000/svg">
<path d="M4679.47 514.743C4843.97 515.129 5001.52 556.624 5152.12 639.228C5299.29 721.824 5422.39 843.776 5521.39 1005.08C5620.41 1162.96 5676.51 1353.3 5689.7 1576.1L6106.09 1577.07L6105.44 1854.67L5689.05 1853.69C5660.9 2165.5 5560.92 2418.87 5389.1 2613.81C5213.86 2808.75 4992.58 2907.62 4725.26 2910.42L4726.43 2411.77C4870.4 2398.4 4995.61 2345.57 5102.07 2253.29C5208.54 2157.58 5275.68 2024.08 5303.5 1852.79L4018.33 1849.77C3959.53 2079.25 3899.12 2264.18 3837.1 2404.54C3775.09 2544.91 3678.85 2664.64 3548.38 2763.72C3417.92 2862.8 3243.02 2912.08 3023.68 2911.57C2746.09 2910.92 2516.7 2814.42 2335.51 2622.07C2154.33 2426.3 2053.84 2167.32 2034.03 1845.12L1607.35 1844.12L1608.01 1566.52L2034.68 1567.53C2059.35 1276.28 2154.15 1041.74 2319.07 863.916C2480.56 686.084 2691.57 583.765 2952.1 556.959L2950.93 1055.6C2830.94 1072.46 2722.86 1125.33 2626.69 1214.21C2527.09 1303.08 2461.7 1421.16 2430.51 1568.45L3684.84 1571.39C3743.63 1345.34 3804.03 1162.13 3866.05 1021.76C3924.65 877.963 4019.18 758.235 4149.63 662.581C4280.09 563.5 4456.71 514.221 4679.47 514.743ZM2999.1 2433.42C3167.03 2433.82 3295.66 2384.43 3385 2285.25C3474.34 2186.07 3548.36 2040.59 3607.08 1848.81L2419.58 1846.03C2436.3 2024.28 2494.23 2166.64 2593.36 2273.11C2689.07 2379.58 2824.32 2433.01 2999.1 2433.42ZM5309.29 1575.2C5289.16 1390.09 5222.67 1246 5109.81 1142.92C4996.97 1036.41 4861.72 982.974 4704.08 982.604C4536.15 982.21 4407.51 1033.32 4318.16 1135.92C4225.39 1238.52 4151.37 1384 4096.09 1572.36L5309.29 1575.2Z" fill="white" fill-opacity="0.08"/>
<path d="M296.805 1853.35C296.805 1786.35 310.53 1727.01 337.978 1675.34C366.234 1623.68 404.177 1583.71 451.808 1555.46C500.246 1526.4 553.932 1511.86 612.865 1511.86C656.459 1511.86 699.247 1521.55 741.226 1540.93C784.014 1559.5 817.92 1584.52 842.947 1616.01V1293.89H982.207V2190H842.947V2089.49C820.342 2121.78 788.857 2148.42 748.492 2169.41C708.934 2190.4 663.322 2200.9 611.654 2200.9C553.528 2200.9 500.246 2186.37 451.808 2157.3C404.177 2127.43 366.234 2086.26 337.978 2033.79C310.53 1980.5 296.805 1920.36 296.805 1853.35ZM842.947 1855.78C842.947 1809.76 833.259 1769.8 813.884 1735.89C795.316 1701.98 770.693 1676.15 740.015 1658.39C709.338 1640.63 676.238 1631.75 640.717 1631.75C605.196 1631.75 572.096 1640.63 541.419 1658.39C510.741 1675.34 485.715 1700.77 466.339 1734.68C447.771 1767.78 438.487 1807.34 438.487 1853.35C438.487 1899.37 447.771 1939.74 466.339 1974.45C485.715 2009.16 510.741 2035.8 541.419 2054.37C572.903 2072.13 606.003 2081.01 640.717 2081.01C676.238 2081.01 709.338 2072.13 740.015 2054.37C770.693 2036.61 795.316 2010.78 813.884 1976.87C833.259 1942.16 842.947 1901.79 842.947 1855.78ZM1775.06 1840.03C1775.06 1865.06 1773.45 1887.66 1770.22 1907.85H1260.41C1264.44 1961.13 1284.22 2003.92 1319.74 2036.21C1355.26 2068.5 1398.86 2084.65 1450.53 2084.65C1524.8 2084.65 1577.27 2053.57 1607.95 1991.4H1756.9C1736.71 2052.76 1699.98 2103.21 1646.7 2142.77C1594.23 2181.52 1528.83 2200.9 1450.53 2200.9C1386.75 2200.9 1329.43 2186.77 1278.57 2158.52C1228.52 2129.45 1188.96 2089.09 1159.9 2037.42C1131.64 1984.94 1117.51 1924.4 1117.51 1855.78C1117.51 1787.16 1131.24 1727.01 1158.68 1675.34C1186.94 1622.87 1226.09 1582.5 1276.15 1554.25C1327.01 1525.99 1385.13 1511.86 1450.53 1511.86C1513.49 1511.86 1569.6 1525.59 1618.85 1553.04C1668.09 1580.49 1706.44 1619.24 1733.89 1669.29C1761.34 1718.53 1775.06 1775.45 1775.06 1840.03ZM1630.96 1796.44C1630.15 1745.58 1611.99 1704.81 1576.46 1674.13C1540.94 1643.45 1496.95 1628.12 1444.47 1628.12C1396.84 1628.12 1356.07 1643.45 1322.16 1674.13C1288.26 1704 1268.07 1744.77 1261.62 1796.44H1630.96ZM2168.85 2066.48L2357.76 1522.76H2504.28L2249.98 2190H2085.29L1832.2 1522.76H1979.94L2168.85 2066.48ZM3202.93 1635.38H3079.41V2190H2940.15V1635.38H2861.44V1522.76H2940.15V1475.54C2940.15 1398.84 2960.34 1343.14 3000.7 1308.42C3041.87 1272.9 3106.05 1255.14 3193.24 1255.14V1370.18C3151.26 1370.18 3121.8 1378.26 3104.84 1394.4C3087.89 1409.74 3079.41 1436.79 3079.41 1475.54V1522.76H3202.93V1635.38ZM3395.51 1434.36C3370.48 1434.36 3349.49 1425.89 3332.54 1408.93C3315.59 1391.98 3307.11 1370.99 3307.11 1345.96C3307.11 1320.94 3315.59 1299.95 3332.54 1282.99C3349.49 1266.04 3370.48 1257.56 3395.51 1257.56C3419.73 1257.56 3440.32 1266.04 3457.27 1282.99C3474.22 1299.95 3482.7 1320.94 3482.7 1345.96C3482.7 1370.99 3474.22 1391.98 3457.27 1408.93C3440.32 1425.89 3419.73 1434.36 3395.51 1434.36ZM3463.32 1522.76V2190H3325.27V1522.76H3463.32ZM3981.22 1511.86C4033.69 1511.86 4080.51 1522.76 4121.69 1544.56C4163.67 1566.36 4196.36 1598.65 4219.77 1641.44C4243.19 1684.22 4254.89 1735.89 4254.89 1796.44V2190H4118.05V1817.03C4118.05 1757.28 4103.12 1711.67 4073.25 1680.19C4043.38 1647.9 4002.61 1631.75 3950.94 1631.75C3899.27 1631.75 3858.1 1647.9 3827.42 1680.19C3797.55 1711.67 3782.62 1757.28 3782.62 1817.03V2190H3644.57V1522.76H3782.62V1599.05C3805.22 1571.6 3833.88 1550.21 3868.6 1534.87C3904.12 1519.53 3941.66 1511.86 3981.22 1511.86ZM4384.97 1853.35C4384.97 1786.35 4398.69 1727.01 4426.14 1675.34C4454.39 1623.68 4492.34 1583.71 4539.97 1555.46C4588.41 1526.4 4641.69 1511.86 4699.81 1511.86C4752.29 1511.86 4797.9 1522.36 4836.65 1543.35C4876.21 1563.53 4907.7 1588.96 4931.11 1619.64V1522.76H5070.37V2190H4931.11V2090.7C4907.7 2122.19 4875.81 2148.42 4835.44 2169.41C4795.08 2190.4 4749.06 2200.9 4697.39 2200.9C4640.07 2200.9 4587.6 2186.37 4539.97 2157.3C4492.34 2127.43 4454.39 2086.26 4426.14 2033.79C4398.69 1980.5 4384.97 1920.36 4384.97 1853.35ZM4931.11 1855.78C4931.11 1809.76 4921.42 1769.8 4902.04 1735.89C4883.48 1701.98 4858.85 1676.15 4828.18 1658.39C4797.5 1640.63 4764.4 1631.75 4728.88 1631.75C4693.36 1631.75 4660.26 1640.63 4629.58 1658.39C4598.9 1675.34 4573.87 1700.77 4554.5 1734.68C4535.93 1767.78 4526.65 1807.34 4526.65 1853.35C4526.65 1899.37 4535.93 1939.74 4554.5 1974.45C4573.87 2009.16 4598.9 2035.8 4629.58 2054.37C4661.06 2072.13 4694.16 2081.01 4728.88 2081.01C4764.4 2081.01 4797.5 2072.13 4828.18 2054.37C4858.85 2036.61 4883.48 2010.78 4902.04 1976.87C4921.42 1942.16 4931.11 1901.79 4931.11 1855.78ZM5588.33 1511.86C5640.81 1511.86 5687.63 1522.76 5728.81 1544.56C5770.79 1566.36 5803.48 1598.65 5826.89 1641.44C5850.31 1684.22 5862.01 1735.89 5862.01 1796.44V2190H5725.17V1817.03C5725.17 1757.28 5710.24 1711.67 5680.37 1680.19C5650.5 1647.9 5609.73 1631.75 5558.06 1631.75C5506.39 1631.75 5465.22 1647.9 5434.54 1680.19C5404.67 1711.67 5389.74 1757.28 5389.74 1817.03V2190H5251.69V1522.76H5389.74V1599.05C5412.34 1571.6 5441 1550.21 5475.72 1534.87C5511.24 1519.53 5548.78 1511.86 5588.33 1511.86ZM5992.08 1855.78C5992.08 1787.16 6005.81 1727.01 6033.26 1675.34C6061.51 1622.87 6100.26 1582.5 6149.51 1554.25C6198.75 1525.99 6255.27 1511.86 6319.04 1511.86C6399.77 1511.86 6466.38 1531.24 6518.85 1569.99C6572.13 1607.93 6608.06 1662.43 6626.63 1733.47H6477.68C6465.57 1700.37 6446.19 1674.54 6419.55 1655.97C6392.91 1637.4 6359.41 1628.12 6319.04 1628.12C6262.53 1628.12 6217.32 1648.3 6183.42 1688.66C6150.32 1728.22 6133.77 1783.93 6133.77 1855.78C6133.77 1927.63 6150.32 1983.73 6183.42 2024.1C6217.32 2064.46 6262.53 2084.65 6319.04 2084.65C6398.97 2084.65 6451.84 2049.53 6477.68 1979.29H6626.63C6607.25 2047.11 6570.92 2101.2 6517.64 2141.56C6464.36 2181.12 6398.16 2200.9 6319.04 2200.9C6255.27 2200.9 6198.75 2186.77 6149.51 2158.52C6100.26 2129.45 6061.51 2089.09 6033.26 2037.42C6005.81 1984.94 5992.08 1924.4 5992.08 1855.78ZM7375.74 1840.03C7375.74 1865.06 7374.12 1887.66 7370.89 1907.85H6861.08C6865.12 1961.13 6884.89 2003.92 6920.42 2036.21C6955.94 2068.5 6999.53 2084.65 7051.2 2084.65C7125.47 2084.65 7177.95 2053.57 7208.62 1991.4H7357.57C7337.39 2052.76 7300.66 2103.21 7247.37 2142.77C7194.9 2181.52 7129.51 2200.9 7051.2 2200.9C6987.42 2200.9 6930.1 2186.77 6879.24 2158.52C6829.19 2129.45 6789.63 2089.09 6760.57 2037.42C6732.31 1984.94 6718.19 1924.4 6718.19 1855.78C6718.19 1787.16 6731.91 1727.01 6759.36 1675.34C6787.61 1622.87 6826.77 1582.5 6876.82 1554.25C6927.68 1525.99 6985.81 1511.86 7051.2 1511.86C7114.17 1511.86 7170.28 1525.59 7219.52 1553.04C7268.77 1580.49 7307.11 1619.24 7334.56 1669.29C7362.01 1718.53 7375.74 1775.45 7375.74 1840.03ZM7231.63 1796.44C7230.82 1745.58 7212.66 1704.81 7177.14 1674.13C7141.62 1643.45 7097.62 1628.12 7045.14 1628.12C6997.51 1628.12 6956.74 1643.45 6922.84 1674.13C6888.93 1704 6868.75 1744.77 6862.29 1796.44H7231.63Z" fill="white"/>
<path d="M2713.52 2366.44V2391.96H2578V2506.8H2692.4V2532.32H2578V2674H2547.2V2366.44H2713.52ZM2981.55 2541.56C2981.55 2552.12 2981.26 2560.19 2980.67 2565.76H2781.35C2782.23 2583.95 2786.63 2599.49 2794.55 2612.4C2802.47 2625.31 2812.89 2635.13 2825.79 2641.88C2838.7 2648.33 2852.78 2651.56 2868.03 2651.56C2887.98 2651.56 2904.7 2646.72 2918.19 2637.04C2931.98 2627.36 2941.07 2614.31 2945.47 2597.88H2978.03C2972.17 2621.35 2959.55 2640.56 2940.19 2655.52C2921.13 2670.19 2897.07 2677.52 2868.03 2677.52C2845.45 2677.52 2825.21 2672.53 2807.31 2662.56C2789.42 2652.29 2775.34 2637.92 2765.07 2619.44C2755.1 2600.67 2750.11 2578.81 2750.11 2553.88C2750.11 2528.95 2755.1 2507.09 2765.07 2488.32C2775.05 2469.55 2788.98 2455.17 2806.87 2445.2C2824.77 2435.23 2845.15 2430.24 2868.03 2430.24C2890.91 2430.24 2910.86 2435.23 2927.87 2445.2C2945.18 2455.17 2958.38 2468.67 2967.47 2485.68C2976.86 2502.4 2981.55 2521.03 2981.55 2541.56ZM2950.31 2540.68C2950.61 2522.79 2946.94 2507.53 2939.31 2494.92C2931.98 2482.31 2921.86 2472.77 2908.95 2466.32C2896.05 2459.87 2881.97 2456.64 2866.71 2456.64C2843.83 2456.64 2824.33 2463.97 2808.19 2478.64C2792.06 2493.31 2783.11 2513.99 2781.35 2540.68H2950.31ZM3053.3 2388.44C3047.14 2388.44 3041.86 2386.24 3037.46 2381.84C3033.06 2377.44 3030.86 2372.01 3030.86 2365.56C3030.86 2359.11 3033.06 2353.83 3037.46 2349.72C3041.86 2345.32 3047.14 2343.12 3053.3 2343.12C3059.46 2343.12 3064.74 2345.32 3069.14 2349.72C3073.54 2353.83 3075.74 2359.11 3075.74 2365.56C3075.74 2372.01 3073.54 2377.44 3069.14 2381.84C3064.74 2386.24 3059.46 2388.44 3053.3 2388.44ZM3068.7 2433.76V2674H3037.9V2433.76H3068.7ZM3178.49 2459.72V2608.88C3178.49 2623.55 3181.28 2633.67 3186.85 2639.24C3192.42 2644.81 3202.25 2647.6 3216.33 2647.6H3244.49V2674H3211.49C3189.78 2674 3173.65 2669.01 3163.09 2659.04C3152.53 2648.77 3147.25 2632.05 3147.25 2608.88V2459.72H3113.81V2433.76H3147.25V2373.48H3178.49V2433.76H3244.49V2459.72H3178.49ZM3400.45 2677.52C3377.86 2677.52 3357.47 2672.53 3339.29 2662.56C3321.39 2652.29 3307.17 2637.92 3296.61 2619.44C3286.34 2600.67 3281.21 2578.81 3281.21 2553.88C3281.21 2528.95 3286.49 2507.24 3297.05 2488.76C3307.61 2469.99 3321.98 2455.61 3340.17 2445.64C3358.35 2435.37 3378.74 2430.24 3401.33 2430.24C3423.91 2430.24 3444.3 2435.37 3462.49 2445.64C3480.97 2455.61 3495.34 2469.99 3505.61 2488.76C3516.17 2507.24 3521.45 2528.95 3521.45 2553.88C3521.45 2578.52 3516.17 2600.23 3505.61 2619C3495.05 2637.77 3480.53 2652.29 3462.05 2662.56C3443.57 2672.53 3423.03 2677.52 3400.45 2677.52ZM3400.45 2650.68C3416.29 2650.68 3430.95 2647.16 3444.45 2640.12C3457.94 2632.79 3468.79 2621.93 3477.01 2607.56C3485.51 2592.89 3489.77 2575 3489.77 2553.88C3489.77 2532.76 3485.66 2515.01 3477.45 2500.64C3469.23 2485.97 3458.38 2475.12 3444.89 2468.08C3431.39 2460.75 3416.73 2457.08 3400.89 2457.08C3385.05 2457.08 3370.38 2460.75 3356.89 2468.08C3343.39 2475.12 3332.54 2485.97 3324.33 2500.64C3316.41 2515.01 3312.45 2532.76 3312.45 2553.88C3312.45 2575 3316.41 2592.89 3324.33 2607.56C3332.54 2621.93 3343.25 2632.79 3356.45 2640.12C3369.94 2647.16 3384.61 2650.68 3400.45 2650.68ZM3684.25 2553.44C3684.25 2528.8 3689.24 2507.24 3699.21 2488.76C3709.19 2469.99 3722.83 2455.61 3740.13 2445.64C3757.73 2435.37 3777.53 2430.24 3799.53 2430.24C3820.65 2430.24 3839.72 2435.37 3856.73 2445.64C3873.75 2455.91 3886.21 2469.25 3894.13 2485.68V2348.4H3924.93V2674H3894.13V2620.32C3886.8 2637.04 3874.77 2650.83 3858.05 2661.68C3841.33 2672.24 3821.68 2677.52 3799.09 2677.52C3777.09 2677.52 3757.29 2672.39 3739.69 2662.12C3722.39 2651.85 3708.75 2637.33 3698.77 2618.56C3689.09 2599.79 3684.25 2578.08 3684.25 2553.44ZM3894.13 2553.88C3894.13 2534.52 3890.17 2517.51 3882.25 2502.84C3874.33 2488.17 3863.48 2476.88 3849.69 2468.96C3836.2 2461.04 3821.24 2457.08 3804.81 2457.08C3787.8 2457.08 3772.55 2460.89 3759.05 2468.52C3745.56 2476.15 3734.85 2487.29 3726.93 2501.96C3719.31 2516.33 3715.49 2533.49 3715.49 2553.44C3715.49 2573.09 3719.31 2590.4 3726.93 2605.36C3734.85 2620.03 3745.56 2631.32 3759.05 2639.24C3772.55 2646.87 3787.8 2650.68 3804.81 2650.68C3821.24 2650.68 3836.2 2646.72 3849.69 2638.8C3863.48 2630.88 3874.33 2619.59 3882.25 2604.92C3890.17 2590.25 3894.13 2573.24 3894.13 2553.88ZM4212.61 2541.56C4212.61 2552.12 4212.31 2560.19 4211.73 2565.76H4012.41C4013.29 2583.95 4017.69 2599.49 4025.61 2612.4C4033.53 2625.31 4043.94 2635.13 4056.85 2641.88C4069.75 2648.33 4083.83 2651.56 4099.09 2651.56C4119.03 2651.56 4135.75 2646.72 4149.25 2637.04C4163.03 2627.36 4172.13 2614.31 4176.53 2597.88H4209.09C4203.22 2621.35 4190.61 2640.56 4171.25 2655.52C4152.18 2670.19 4128.13 2677.52 4099.09 2677.52C4076.5 2677.52 4056.26 2672.53 4038.37 2662.56C4020.47 2652.29 4006.39 2637.92 3996.13 2619.44C3986.15 2600.67 3981.17 2578.81 3981.17 2553.88C3981.17 2528.95 3986.15 2507.09 3996.13 2488.32C4006.1 2469.55 4020.03 2455.17 4037.93 2445.2C4055.82 2435.23 4076.21 2430.24 4099.09 2430.24C4121.97 2430.24 4141.91 2435.23 4158.93 2445.2C4176.23 2455.17 4189.43 2468.67 4198.53 2485.68C4207.91 2502.4 4212.61 2521.03 4212.61 2541.56ZM4181.37 2540.68C4181.66 2522.79 4177.99 2507.53 4170.37 2494.92C4163.03 2482.31 4152.91 2472.77 4140.01 2466.32C4127.1 2459.87 4113.02 2456.64 4097.77 2456.64C4074.89 2456.64 4055.38 2463.97 4039.25 2478.64C4023.11 2493.31 4014.17 2513.99 4012.41 2540.68H4181.37ZM4480.78 2366.44C4514.81 2366.44 4543.99 2372.6 4568.34 2384.92C4592.69 2397.24 4611.31 2414.99 4624.22 2438.16C4637.13 2461.33 4643.58 2488.91 4643.58 2520.88C4643.58 2552.56 4637.13 2579.99 4624.22 2603.16C4611.31 2626.04 4592.69 2643.64 4568.34 2655.96C4543.99 2667.99 4514.81 2674 4480.78 2674H4389.7V2366.44H4480.78ZM4480.78 2648.48C4523.61 2648.48 4556.17 2637.33 4578.46 2615.04C4601.05 2592.45 4612.34 2561.07 4612.34 2520.88C4612.34 2480.4 4601.05 2448.87 4578.46 2426.28C4556.17 2403.4 4523.61 2391.96 4480.78 2391.96H4420.5V2648.48H4480.78ZM4917.72 2541.56C4917.72 2552.12 4917.43 2560.19 4916.84 2565.76H4717.52C4718.4 2583.95 4722.8 2599.49 4730.72 2612.4C4738.64 2625.31 4749.06 2635.13 4761.96 2641.88C4774.87 2648.33 4788.95 2651.56 4804.2 2651.56C4824.15 2651.56 4840.87 2646.72 4854.36 2637.04C4868.15 2627.36 4877.24 2614.31 4881.64 2597.88H4914.2C4908.34 2621.35 4895.72 2640.56 4876.36 2655.52C4857.3 2670.19 4833.24 2677.52 4804.2 2677.52C4781.62 2677.52 4761.38 2672.53 4743.48 2662.56C4725.59 2652.29 4711.51 2637.92 4701.24 2619.44C4691.27 2600.67 4686.28 2578.81 4686.28 2553.88C4686.28 2528.95 4691.27 2507.09 4701.24 2488.32C4711.22 2469.55 4725.15 2455.17 4743.04 2445.2C4760.94 2435.23 4781.32 2430.24 4804.2 2430.24C4827.08 2430.24 4847.03 2435.23 4864.04 2445.2C4881.35 2455.17 4894.55 2468.67 4903.64 2485.68C4913.03 2502.4 4917.72 2521.03 4917.72 2541.56ZM4886.48 2540.68C4886.78 2522.79 4883.11 2507.53 4875.48 2494.92C4868.15 2482.31 4858.03 2472.77 4845.12 2466.32C4832.22 2459.87 4818.14 2456.64 4802.88 2456.64C4780 2456.64 4760.5 2463.97 4744.36 2478.64C4728.23 2493.31 4719.28 2513.99 4717.52 2540.68H4886.48ZM5059.44 2644.08L5140.4 2433.76H5172.96L5076.6 2674H5041.84L4945.48 2433.76H4978.48L5059.44 2644.08ZM5365.8 2486.56C5373.43 2470.43 5385.46 2457.08 5401.88 2446.52C5418.6 2435.67 5438.4 2430.24 5461.28 2430.24C5482.99 2430.24 5502.5 2435.37 5519.8 2445.64C5537.4 2455.61 5551.04 2469.99 5560.72 2488.76C5570.7 2507.24 5575.68 2528.8 5575.68 2553.44C5575.68 2578.08 5570.7 2599.79 5560.72 2618.56C5551.04 2637.33 5537.4 2651.85 5519.8 2662.12C5502.5 2672.39 5482.99 2677.52 5461.28 2677.52C5438.7 2677.52 5419.04 2672.24 5402.32 2661.68C5385.6 2650.83 5373.43 2637.33 5365.8 2621.2V2787.52H5335.44V2433.76H5365.8V2486.56ZM5544.44 2553.44C5544.44 2533.49 5540.48 2516.33 5532.56 2501.96C5524.94 2487.29 5514.38 2476.15 5500.88 2468.52C5487.39 2460.89 5472.14 2457.08 5455.12 2457.08C5438.7 2457.08 5423.59 2461.04 5409.8 2468.96C5396.31 2476.88 5385.6 2488.17 5377.68 2502.84C5369.76 2517.51 5365.8 2534.52 5365.8 2553.88C5365.8 2573.24 5369.76 2590.25 5377.68 2604.92C5385.6 2619.59 5396.31 2630.88 5409.8 2638.8C5423.59 2646.72 5438.7 2650.68 5455.12 2650.68C5472.14 2650.68 5487.39 2646.87 5500.88 2639.24C5514.38 2631.32 5524.94 2620.03 5532.56 2605.36C5540.48 2590.4 5544.44 2573.09 5544.44 2553.44ZM5618.28 2553.44C5618.28 2528.8 5623.12 2507.24 5632.8 2488.76C5642.77 2469.99 5656.41 2455.61 5673.72 2445.64C5691.32 2435.37 5711.12 2430.24 5733.12 2430.24C5756 2430.24 5775.65 2435.52 5792.08 2446.08C5808.8 2456.64 5820.82 2470.13 5828.16 2486.56V2433.76H5858.96V2674H5828.16V2620.76C5820.53 2637.19 5808.36 2650.83 5791.64 2661.68C5775.21 2672.24 5755.56 2677.52 5732.68 2677.52C5710.97 2677.52 5691.32 2672.39 5673.72 2662.12C5656.41 2651.85 5642.77 2637.33 5632.8 2618.56C5623.12 2599.79 5618.28 2578.08 5618.28 2553.44ZM5828.16 2553.88C5828.16 2534.52 5824.2 2517.51 5816.28 2502.84C5808.36 2488.17 5797.5 2476.88 5783.72 2468.96C5770.22 2461.04 5755.26 2457.08 5738.84 2457.08C5721.82 2457.08 5706.57 2460.89 5693.08 2468.52C5679.58 2476.15 5668.88 2487.29 5660.96 2501.96C5653.33 2516.33 5649.52 2533.49 5649.52 2553.44C5649.52 2573.09 5653.33 2590.4 5660.96 2605.36C5668.88 2620.03 5679.58 2631.32 5693.08 2639.24C5706.57 2646.87 5721.82 2650.68 5738.84 2650.68C5755.26 2650.68 5770.22 2646.72 5783.72 2638.8C5797.5 2630.88 5808.36 2619.59 5816.28 2604.92C5824.2 2590.25 5828.16 2573.24 5828.16 2553.88ZM5960.07 2476.44C5966.82 2461.48 5977.08 2449.89 5990.87 2441.68C6004.95 2433.47 6022.11 2429.36 6042.35 2429.36V2461.48H6033.99C6011.7 2461.48 5993.8 2467.49 5980.31 2479.52C5966.82 2491.55 5960.07 2511.64 5960.07 2539.8V2674H5929.27V2433.76H5960.07V2476.44ZM6074.6 2553.44C6074.6 2528.8 6079.44 2507.24 6089.12 2488.76C6099.1 2469.99 6112.74 2455.61 6130.04 2445.64C6147.64 2435.37 6167.44 2430.24 6189.44 2430.24C6212.32 2430.24 6231.98 2435.52 6248.4 2446.08C6265.12 2456.64 6277.15 2470.13 6284.48 2486.56V2433.76H6315.28V2674H6284.48V2620.76C6276.86 2637.19 6264.68 2650.83 6247.96 2661.68C6231.54 2672.24 6211.88 2677.52 6189 2677.52C6167.3 2677.52 6147.64 2672.39 6130.04 2662.12C6112.74 2651.85 6099.1 2637.33 6089.12 2618.56C6079.44 2599.79 6074.6 2578.08 6074.6 2553.44ZM6284.48 2553.88C6284.48 2534.52 6280.52 2517.51 6272.6 2502.84C6264.68 2488.17 6253.83 2476.88 6240.04 2468.96C6226.55 2461.04 6211.59 2457.08 6195.16 2457.08C6178.15 2457.08 6162.9 2460.89 6149.4 2468.52C6135.91 2476.15 6125.2 2487.29 6117.28 2501.96C6109.66 2516.33 6105.84 2533.49 6105.84 2553.44C6105.84 2573.09 6109.66 2590.4 6117.28 2605.36C6125.2 2620.03 6135.91 2631.32 6149.4 2639.24C6162.9 2646.87 6178.15 2650.68 6195.16 2650.68C6211.59 2650.68 6226.55 2646.72 6240.04 2638.8C6253.83 2630.88 6264.68 2619.59 6272.6 2604.92C6280.52 2590.25 6284.48 2573.24 6284.48 2553.88ZM6597.42 2366.44C6631.45 2366.44 6660.63 2372.6 6684.98 2384.92C6709.33 2397.24 6727.95 2414.99 6740.86 2438.16C6753.77 2461.33 6760.22 2488.91 6760.22 2520.88C6760.22 2552.56 6753.77 2579.99 6740.86 2603.16C6727.95 2626.04 6709.33 2643.64 6684.98 2655.96C6660.63 2667.99 6631.45 2674 6597.42 2674H6506.34V2366.44H6597.42ZM6597.42 2648.48C6640.25 2648.48 6672.81 2637.33 6695.1 2615.04C6717.69 2592.45 6728.98 2561.07 6728.98 2520.88C6728.98 2480.4 6717.69 2448.87 6695.1 2426.28C6672.81 2403.4 6640.25 2391.96 6597.42 2391.96H6537.14V2648.48H6597.42ZM7034.36 2541.56C7034.36 2552.12 7034.07 2560.19 7033.48 2565.76H6834.16C6835.04 2583.95 6839.44 2599.49 6847.36 2612.4C6855.28 2625.31 6865.7 2635.13 6878.6 2641.88C6891.51 2648.33 6905.59 2651.56 6920.84 2651.56C6940.79 2651.56 6957.51 2646.72 6971 2637.04C6984.79 2627.36 6993.88 2614.31 6998.28 2597.88H7030.84C7024.98 2621.35 7012.36 2640.56 6993 2655.52C6973.94 2670.19 6949.88 2677.52 6920.84 2677.52C6898.26 2677.52 6878.02 2672.53 6860.12 2662.56C6842.23 2652.29 6828.15 2637.92 6817.88 2619.44C6807.91 2600.67 6802.92 2578.81 6802.92 2553.88C6802.92 2528.95 6807.91 2507.09 6817.88 2488.32C6827.86 2469.55 6841.79 2455.17 6859.68 2445.2C6877.58 2435.23 6897.96 2430.24 6920.84 2430.24C6943.72 2430.24 6963.67 2435.23 6980.68 2445.2C6997.99 2455.17 7011.19 2468.67 7020.28 2485.68C7029.67 2502.4 7034.36 2521.03 7034.36 2541.56ZM7003.12 2540.68C7003.42 2522.79 6999.75 2507.53 6992.12 2494.92C6984.79 2482.31 6974.67 2472.77 6961.76 2466.32C6948.86 2459.87 6934.78 2456.64 6919.52 2456.64C6896.64 2456.64 6877.14 2463.97 6861 2478.64C6844.87 2493.31 6835.92 2513.99 6834.16 2540.68H7003.12ZM7176.08 2644.08L7257.04 2433.76H7289.6L7193.24 2674H7158.48L7062.12 2433.76H7095.12L7176.08 2644.08Z" fill="white"/>
</svg>
