<svg width="4636" height="2667" viewBox="0 0 4636 2667" fill="none" xmlns="http://www.w3.org/2000/svg">
<g clip-path="url(#clip0)">
<path d="M3138.47 135.743C3302.97 136.129 3460.52 177.624 3611.12 260.228C3758.29 342.824 3881.39 464.776 3980.39 626.084C4079.41 783.964 4135.51 974.301 4148.7 1197.1L4565.09 1198.07L4564.44 1475.67L4148.05 1474.69C4119.9 1786.5 4019.92 2039.87 3848.1 2234.81C3672.86 2429.75 3451.58 2528.62 3184.26 2531.42L3185.43 2032.77C3329.4 2019.4 3454.61 1966.57 3561.07 1874.29C3667.54 1778.58 3734.68 1645.08 3762.5 1473.79L2477.33 1470.77C2418.53 1700.25 2358.12 1885.18 2296.1 2025.54C2234.09 2165.91 2137.85 2285.64 2007.38 2384.72C1876.92 2483.8 1702.02 2533.08 1482.68 2532.57C1205.09 2531.92 975.696 2435.42 794.51 2243.07C613.33 2047.3 512.837 1788.32 493.03 1466.12L66.3544 1465.12L67.0053 1187.52L493.681 1188.53C518.354 897.277 613.15 662.74 778.069 484.916C939.562 307.084 1150.57 204.765 1411.1 177.959L1409.93 676.604C1289.94 693.458 1181.86 746.325 1085.69 835.205C986.095 924.077 920.702 1042.16 889.513 1189.45L2143.84 1192.39C2202.63 966.342 2263.03 783.132 2325.05 642.765C2383.65 498.963 2478.18 379.235 2608.63 283.581C2739.09 184.5 2915.71 135.221 3138.47 135.743ZM1458.1 2054.42C1626.03 2054.82 1754.66 2005.43 1844 1906.25C1933.34 1807.07 2007.36 1661.59 2066.08 1469.81L878.58 1467.03C895.298 1645.28 953.226 1787.64 1052.36 1894.11C1148.07 2000.58 1283.32 2054.01 1458.1 2054.42ZM3768.29 1196.2C3748.16 1011.09 3681.67 866.996 3568.81 763.917C3455.97 657.412 3320.72 603.974 3163.08 603.604C2995.15 603.21 2866.51 654.316 2777.16 756.92C2684.39 859.517 2610.37 1005 2555.09 1193.36L3768.29 1196.2Z" fill="#FAFAFA"/>
<path d="M3611.12 260.228L3638.53 211.393L3638.29 211.26L3638.05 211.129L3611.12 260.228ZM3980.39 626.084L3932.67 655.378L3932.81 655.608L3932.95 655.837L3980.39 626.084ZM4148.7 1197.1L4092.8 1200.4L4095.91 1252.97L4148.57 1253.1L4148.7 1197.1ZM4565.09 1198.07L4621.09 1198.2L4621.22 1142.2L4565.22 1142.07L4565.09 1198.07ZM4564.44 1475.67L4564.31 1531.67L4620.31 1531.8L4620.44 1475.8L4564.44 1475.67ZM4148.05 1474.69L4148.18 1418.69L4096.89 1418.57L4092.27 1469.66L4148.05 1474.69ZM3848.1 2234.81L3889.75 2272.25L3889.93 2272.05L3890.12 2271.84L3848.1 2234.81ZM3184.26 2531.42L3128.26 2531.28L3128.13 2588.01L3184.84 2587.41L3184.26 2531.42ZM3185.43 2032.77L3180.25 1977.01L3129.55 1981.72L3129.43 2032.64L3185.43 2032.77ZM3561.07 1874.29L3597.75 1916.6L3598.13 1916.27L3598.51 1915.94L3561.07 1874.29ZM3762.5 1473.79L3817.77 1482.76L3828.3 1417.94L3762.63 1417.79L3762.5 1473.79ZM2477.33 1470.77L2477.46 1414.77L2433.89 1414.67L2423.08 1456.87L2477.33 1470.77ZM2296.1 2025.54L2347.33 2048.18L2347.33 2048.18L2296.1 2025.54ZM2007.38 2384.72L1973.51 2340.12L1973.51 2340.12L2007.38 2384.72ZM794.51 2243.07L753.409 2281.11L753.577 2281.29L753.747 2281.47L794.51 2243.07ZM493.03 1466.12L548.925 1462.69L545.701 1410.24L493.161 1410.12L493.03 1466.12ZM66.3544 1465.12L10.3546 1464.99L10.2232 1520.99L66.2231 1521.12L66.3544 1465.12ZM67.0053 1187.52L67.1367 1131.52L11.1368 1131.39L11.0055 1187.39L67.0053 1187.52ZM493.681 1188.53L493.55 1244.53L545.127 1244.65L549.481 1193.25L493.681 1188.53ZM778.069 484.916L819.129 522.996L819.329 522.781L819.526 522.564L778.069 484.916ZM1411.1 177.959L1467.1 178.09L1467.24 115.886L1405.36 122.253L1411.1 177.959ZM1409.93 676.604L1417.72 732.059L1465.81 725.303L1465.93 676.735L1409.93 676.604ZM1085.69 835.205L1122.97 876.989L1123.34 876.663L1123.7 876.331L1085.69 835.205ZM889.513 1189.45L834.728 1177.85L820.447 1245.29L889.381 1245.45L889.513 1189.45ZM2143.84 1192.39L2143.71 1248.39L2187.11 1248.5L2198.03 1206.49L2143.84 1192.39ZM2325.05 642.765L2376.27 665.396L2376.6 664.651L2376.91 663.897L2325.05 642.765ZM2608.63 283.581L2641.74 328.742L2642.12 328.463L2642.5 328.178L2608.63 283.581ZM1844 1906.25L1802.39 1868.77L1802.39 1868.77L1844 1906.25ZM2066.08 1469.81L2119.62 1486.2L2141.73 1413.99L2066.21 1413.81L2066.08 1469.81ZM878.58 1467.03L878.712 1411.03L817.069 1410.88L822.825 1472.25L878.58 1467.03ZM1052.36 1894.11L1094.01 1856.67L1093.68 1856.31L1093.35 1855.95L1052.36 1894.11ZM3768.29 1196.2L3768.16 1252.2L3830.72 1252.35L3823.96 1190.15L3768.29 1196.2ZM3568.81 763.917L3530.38 804.643L3530.71 804.957L3531.05 805.265L3568.81 763.917ZM2777.16 756.92L2818.7 794.48L2819.05 794.091L2819.4 793.696L2777.16 756.92ZM2555.09 1193.36L2501.36 1177.59L2480.35 1249.18L2554.96 1249.36L2555.09 1193.36ZM3138.34 191.743C3293.05 192.106 3441.43 231.023 3584.19 309.327L3638.05 211.129C3479.61 124.225 3312.89 80.1518 3138.6 79.7431L3138.34 191.743ZM3583.71 309.063C3721.59 386.439 3838.04 501.203 3932.67 655.378L4028.12 596.789C3924.73 428.349 3795 299.21 3638.53 211.393L3583.71 309.063ZM3932.95 655.837C4026.07 804.318 4080.06 985.146 4092.8 1200.4L4204.6 1193.79C4190.97 963.456 4132.75 763.61 4027.84 596.33L3932.95 655.837ZM4148.57 1253.1L4564.96 1254.07L4565.22 1142.07L4148.83 1141.1L4148.57 1253.1ZM4509.09 1197.94L4508.44 1475.54L4620.44 1475.8L4621.09 1198.2L4509.09 1197.94ZM4564.57 1419.67L4148.18 1418.69L4147.92 1530.69L4564.31 1531.67L4564.57 1419.67ZM4092.27 1469.66C4064.97 1772.09 3968.53 2013.48 3806.09 2197.78L3890.12 2271.84C4071.31 2066.26 4174.83 1800.9 4203.82 1479.73L4092.27 1469.66ZM3806.46 2197.37C3641.94 2380.39 3435.67 2472.78 3183.67 2475.42L3184.84 2587.41C3467.49 2584.45 3703.79 2479.11 3889.75 2272.25L3806.46 2197.37ZM3240.26 2531.55L3241.43 2032.9L3129.43 2032.64L3128.26 2531.28L3240.26 2531.55ZM3190.61 2088.53C3345.9 2074.11 3482.21 2016.76 3597.75 1916.6L3524.39 1831.98C3427.02 1916.38 3312.9 1964.69 3180.25 1977.01L3190.61 2088.53ZM3598.51 1915.94C3716.36 1809.99 3788.36 1663.9 3817.77 1482.76L3707.22 1464.81C3681 1626.26 3618.71 1747.17 3523.63 1832.64L3598.51 1915.94ZM3762.63 1417.79L2477.46 1414.77L2477.2 1526.77L3762.37 1529.79L3762.63 1417.79ZM2423.08 1456.87C2364.68 1684.79 2305.17 1866.45 2244.88 2002.91L2347.33 2048.18C2411.07 1903.9 2472.38 1715.72 2531.58 1484.67L2423.08 1456.87ZM2244.88 2002.91C2186.95 2134.02 2096.95 2246.37 1973.51 2340.12L2041.25 2429.31C2178.74 2324.9 2281.22 2197.8 2347.33 2048.18L2244.88 2002.91ZM1973.51 2340.12C1855.67 2429.61 1694.01 2477.06 1482.82 2476.57L1482.55 2588.57C1710.03 2589.1 1898.16 2537.98 2041.25 2429.31L1973.51 2340.12ZM1482.82 2476.57C1219.73 2475.95 1005.32 2385.2 835.272 2204.68L753.747 2281.47C946.068 2485.64 1190.44 2587.88 1482.55 2588.57L1482.82 2476.57ZM835.61 2205.04C664.944 2020.63 568.112 1774.8 548.925 1462.69L437.136 1469.56C457.563 1801.84 561.717 2073.98 753.409 2281.11L835.61 2205.04ZM493.161 1410.12L66.4857 1409.12L66.2231 1521.12L492.899 1522.12L493.161 1410.12ZM122.354 1465.25L123.005 1187.66L11.0055 1187.39L10.3546 1464.99L122.354 1465.25ZM66.874 1243.52L493.55 1244.53L493.812 1132.53L67.1367 1131.52L66.874 1243.52ZM549.481 1193.25C573.323 911.818 664.346 689.891 819.129 522.996L737.01 446.836C561.954 635.59 463.385 882.736 437.881 1183.8L549.481 1193.25ZM819.526 522.564C970.873 355.904 1168.69 259.196 1416.83 233.665L1405.36 122.253C1132.45 150.333 908.25 258.264 736.613 447.269L819.526 522.564ZM1355.1 177.827L1353.93 676.472L1465.93 676.735L1467.1 178.09L1355.1 177.827ZM1402.14 621.148C1269.93 639.719 1151.52 698.113 1047.68 794.079L1123.7 876.331C1212.2 794.537 1309.95 747.197 1417.72 732.059L1402.14 621.148ZM1048.41 793.422C938.791 891.234 868.057 1020.45 834.728 1177.85L944.298 1201.05C973.347 1063.87 1033.4 956.92 1122.97 876.989L1048.41 793.422ZM889.381 1245.45L2143.71 1248.39L2143.97 1136.39L889.644 1133.45L889.381 1245.45ZM2198.03 1206.49C2256.41 982.017 2315.93 801.973 2376.27 665.396L2273.83 620.133C2210.13 764.29 2148.84 950.666 2089.64 1178.3L2198.03 1206.49ZM2376.91 663.897C2431.43 530.095 2519.27 418.541 2641.74 328.742L2575.52 238.42C2437.08 339.928 2335.86 467.83 2273.19 621.632L2376.91 663.897ZM2642.5 328.178C2760.2 238.788 2923.49 191.239 3138.34 191.743L3138.6 79.7431C2907.93 79.2022 2717.99 130.211 2574.76 238.984L2642.5 328.178ZM1457.97 2110.42C1637.41 2110.84 1782.99 2057.65 1885.61 1943.73L1802.39 1868.77C1726.34 1953.2 1614.65 1998.79 1458.23 1998.42L1457.97 2110.42ZM1885.61 1943.73C1982.47 1836.21 2059.61 1682.22 2119.62 1486.2L2012.53 1453.42C1955.12 1640.96 1884.21 1777.94 1802.39 1868.77L1885.61 1943.73ZM2066.21 1413.81L878.712 1411.03L878.449 1523.03L2065.94 1525.81L2066.21 1413.81ZM822.825 1472.25C840.425 1659.91 902.025 1814.83 1011.38 1932.27L1093.35 1855.95C1004.43 1760.45 950.172 1630.64 934.336 1461.8L822.825 1472.25ZM1010.72 1931.55C1119.31 2052.34 1271.13 2109.99 1457.97 2110.42L1458.23 1998.42C1295.5 1998.04 1176.84 1948.81 1094.01 1856.67L1010.72 1931.55ZM3823.96 1190.15C3802.69 994.578 3731.58 836.742 3606.58 722.569L3531.05 805.265C3631.76 897.25 3693.63 1027.61 3712.62 1202.26L3823.96 1190.15ZM3607.25 723.192C3483.86 606.735 3334.85 548.007 3163.21 547.604L3162.94 659.604C3306.6 659.941 3428.08 708.088 3530.38 804.643L3607.25 723.192ZM3163.21 547.604C2983.17 547.182 2837.39 602.487 2734.93 720.145L2819.4 793.696C2895.63 706.145 3007.12 659.239 3162.94 659.604L3163.21 547.604ZM2735.63 719.361C2635.34 830.265 2558.08 984.301 2501.36 1177.59L2608.82 1209.13C2662.65 1025.69 2733.44 888.768 2818.7 794.48L2735.63 719.361ZM2554.96 1249.36L3768.16 1252.2L3768.42 1140.2L2555.22 1137.36L2554.96 1249.36Z" fill="#2A2A2A"/>
</g>
<defs>
<clipPath id="clip0">
<rect width="4636" height="2667" fill="white"/>
</clipPath>
</defs>
</svg>
